REM DIRINDEX 1\2\6,1\2\7,1\2\8,1\3\9,1\3\10,1\3\11,1\4\12,1\4\13,1\4\14,1\5\15,1\5\16,1\5\17,1\5\18
REM DIRNAME folder01,folder02,folder03,folder04,folder05,folder06,folder07,folder08,folder09,folder10,folder11,folder12,folder13,folder14,folder15,folder16,folder17,folder18
TITLE ""
FILE "" MP3
  TRACK 01 AUDIO
    TITLE "16:cjc019_7915"
    INDEX 01 00:00:00
  TRACK 02 AUDIO
    TITLE "0:"
    INDEX 01 00:01:05
  TRACK 03 AUDIO
    TITLE "18:cjc019_7916"
    INDEX 01 00:01:64
  TRACK 04 AUDIO
    TITLE "0:"
    INDEX 01 00:03:14
  TRACK 05 AUDIO
    TITLE "17:cjc019_7917"
    INDEX 01 00:03:66
  TRACK 06 AUDIO
    TITLE "0:"
    INDEX 01 00:05:14
  TRACK 07 AUDIO
    TITLE "16:cjc019_7918"
    INDEX 01 00:06:73
  TRACK 08 AUDIO
    TITLE "0:"
    INDEX 01 00:08:05
  TRACK 09 AUDIO
    TITLE "18:cjc019_7919"
    INDEX 01 00:08:60
  TRACK 10 AUDIO
    TITLE "0:"
    INDEX 01 00:11:23
  TRACK 11 AUDIO
    TITLE "17:cjc019_7920"
    INDEX 01 00:12:01
  TRACK 12 AUDIO
    TITLE "0:"
    INDEX 01 00:13:10
  TRACK 13 AUDIO
    TITLE "16:cjc019_7921"
    INDEX 01 00:14:72
  TRACK 14 AUDIO
    TITLE "0:"
    INDEX 01 00:16:20
  TRACK 15 AUDIO
    TITLE "18:cjc019_7922"
    INDEX 01 00:16:71
  TRACK 16 AUDIO
    TITLE "0:"
    INDEX 01 00:18:11
  TRACK 17 AUDIO
    TITLE "17:cjc019_7923"
    INDEX 01 00:18:68
  TRACK 18 AUDIO
    TITLE "0:"
    INDEX 01 00:20:14
  TRACK 19 AUDIO
    TITLE "16:cjc019_7924"
    INDEX 01 00:21:74
  TRACK 20 AUDIO
    TITLE "0:"
    INDEX 01 00:23:06
  TRACK 21 AUDIO
    TITLE "18:cjc019_7925"
    INDEX 01 00:23:63
  TRACK 22 AUDIO
    TITLE "0:"
    INDEX 01 00:26:58
  TRACK 23 AUDIO
    TITLE "17:cjc019_7926"
    INDEX 01 00:27:38
  TRACK 24 AUDIO
    TITLE "0:"
    INDEX 01 00:28:53
  TRACK 25 AUDIO
    TITLE "16:cjc019_7927"
    INDEX 01 00:30:32
  TRACK 26 AUDIO
    TITLE "0:"
    INDEX 01 00:31:43
  TRACK 27 AUDIO
    TITLE "18:cjc019_7928"
    INDEX 01 00:32:23
  TRACK 28 AUDIO
    TITLE "0:"
    INDEX 01 00:33:36
  TRACK 29 AUDIO
    TITLE "17:cjc019_7929"
    INDEX 01 00:34:14
  TRACK 30 AUDIO
    TITLE "0:"
    INDEX 01 00:35:31
  TRACK 31 AUDIO
    TITLE "16:cjc019_7930"
    INDEX 01 00:37:14
  TRACK 32 AUDIO
    TITLE "0:"
    INDEX 01 00:38:39
  TRACK 33 AUDIO
    TITLE "18:cjc019_7931"
    INDEX 01 00:39:17
  TRACK 34 AUDIO
    TITLE "0:"
    INDEX 01 00:40:46
  TRACK 35 AUDIO
    TITLE "17:cjc019_7932"
    INDEX 01 00:41:28
  TRACK 36 AUDIO
    TITLE "0:"
    INDEX 01 00:42:55
  TRACK 37 AUDIO
    TITLE "16:cjc019_7933"
    INDEX 01 00:44:34
  TRACK 38 AUDIO
    TITLE "0:"
    INDEX 01 00:45:59
  TRACK 39 AUDIO
    TITLE "18:cjc019_7934"
    INDEX 01 00:46:37
  TRACK 40 AUDIO
    TITLE "0:"
    INDEX 01 00:47:50
  TRACK 41 AUDIO
    TITLE "17:cjc019_7935"
    INDEX 01 00:48:30
  TRACK 42 AUDIO
    TITLE "0:"
    INDEX 01 00:49:65
  TRACK 43 AUDIO
    TITLE "16:cjc019_7936"
    INDEX 01 00:51:48
  TRACK 44 AUDIO
    TITLE "0:"
    INDEX 01 00:52:65
  TRACK 45 AUDIO
    TITLE "18:cjc019_7937"
    INDEX 01 00:53:47
  TRACK 46 AUDIO
    TITLE "0:"
    INDEX 01 00:54:68
  TRACK 47 AUDIO
    TITLE "17:cjc019_7938"
    INDEX 01 00:55:51
  TRACK 48 AUDIO
    TITLE "0:"
    INDEX 01 00:56:72
  TRACK 49 AUDIO
    TITLE "16:cjc019_7939"
    INDEX 01 00:58:52
  TRACK 50 AUDIO
    TITLE "0:"
    INDEX 01 01:00:13
  TRACK 51 AUDIO
    TITLE "18:cjc019_7940"
    INDEX 01 01:00:74
  TRACK 52 AUDIO
    TITLE "0:"
    INDEX 01 01:02:55
  TRACK 53 AUDIO
    TITLE "17:cjc019_7941"
    INDEX 01 01:03:31
  TRACK 54 AUDIO
    TITLE "0:"
    INDEX 01 01:04:68
  TRACK 55 AUDIO
    TITLE "16:cjc019_7942"
    INDEX 01 01:06:49
  TRACK 56 AUDIO
    TITLE "0:"
    INDEX 01 01:07:64
  TRACK 57 AUDIO
    TITLE "18:cjc019_7943"
    INDEX 01 01:08:46
  TRACK 58 AUDIO
    TITLE "0:"
    INDEX 01 01:11:11
  TRACK 59 AUDIO
    TITLE "17:cjc019_7944"
    INDEX 01 01:11:60
  TRACK 60 AUDIO
    TITLE "0:"
    INDEX 01 01:13:06
  TRACK 61 AUDIO
    TITLE "16:cjc019_7945"
    INDEX 01 01:14:65
  TRACK 62 AUDIO
    TITLE "0:"
    INDEX 01 01:16:05
  TRACK 63 AUDIO
    TITLE "18:cjc019_7946"
    INDEX 01 01:16:61
  TRACK 64 AUDIO
    TITLE "0:"
    INDEX 01 01:19:32
  TRACK 65 AUDIO
    TITLE "17:cjc019_7947"
    INDEX 01 01:20:10
  TRACK 66 AUDIO
    TITLE "0:"
    INDEX 01 01:21:35
  TRACK 67 AUDIO
    TITLE "16:cjc019_7948"
    INDEX 01 01:23:18
  TRACK 68 AUDIO
    TITLE "0:"
    INDEX 01 01:24:61
  TRACK 69 AUDIO
    TITLE "18:cjc019_7949"
    INDEX 01 01:25:43
  TRACK 70 AUDIO
    TITLE "0:"
    INDEX 01 01:26:74
  TRACK 71 AUDIO
    TITLE "17:cjc019_7950"
    INDEX 01 01:27:51
  TRACK 72 AUDIO
    TITLE "0:"
    INDEX 01 01:29:23
  TRACK 73 AUDIO
    TITLE "16:cjc019_7951"
    INDEX 01 01:31:02
  TRACK 74 AUDIO
    TITLE "0:"
    INDEX 01 01:32:12
  TRACK 75 AUDIO
    TITLE "18:cjc019_7952"
    INDEX 01 01:32:70
  TRACK 76 AUDIO
    TITLE "0:"
    INDEX 01 01:36:66
  TRACK 77 AUDIO
    TITLE "17:cjc019_7953"
    INDEX 01 01:37:38
  TRACK 78 AUDIO
    TITLE "0:"
    INDEX 01 01:38:51
  TRACK 79 AUDIO
    TITLE "16:cjc019_7954"
    INDEX 01 01:40:38
  TRACK 80 AUDIO
    TITLE "0:"
    INDEX 01 01:41:61
  TRACK 81 AUDIO
    TITLE "18:cjc019_7955"
    INDEX 01 01:42:37
  TRACK 82 AUDIO
    TITLE "0:"
    INDEX 01 01:43:51
  TRACK 83 AUDIO
    TITLE "17:cjc019_7956"
    INDEX 01 01:44:30
  TRACK 84 AUDIO
    TITLE "0:"
    INDEX 01 01:45:57
  TRACK 85 AUDIO
    TITLE "16:cjc019_7957"
    INDEX 01 01:47:35
  TRACK 86 AUDIO
    TITLE "0:"
    INDEX 01 01:48:50
  TRACK 87 AUDIO
    TITLE "18:cjc019_7958"
    INDEX 01 01:49:32
  TRACK 88 AUDIO
    TITLE "0:"
    INDEX 01 01:52:22
  TRACK 89 AUDIO
    TITLE "17:cjc019_7959"
    INDEX 01 01:53:00
  TRACK 90 AUDIO
    TITLE "0:"
    INDEX 01 01:54:31
  TRACK 91 AUDIO
    TITLE "16:cjc019_7960"
    INDEX 01 01:56:12
  TRACK 92 AUDIO
    TITLE "0:"
    INDEX 01 01:57:31
  TRACK 93 AUDIO
    TITLE "18:cjc019_7961"
    INDEX 01 01:58:13
  TRACK 94 AUDIO
    TITLE "0:"
    INDEX 01 02:01:23
  TRACK 95 AUDIO
    TITLE "17:cjc019_7962"
    INDEX 01 02:02:03
  TRACK 96 AUDIO
    TITLE "0:"
    INDEX 01 02:03:26
  TRACK 97 AUDIO
    TITLE "16:cjc019_7963"
    INDEX 01 02:05:13
  TRACK 98 AUDIO
    TITLE "0:"
    INDEX 01 02:06:50
  TRACK 99 AUDIO
    TITLE "18:cjc019_7964"
    INDEX 01 02:07:31
  TRACK 100 AUDIO
    TITLE "0:"
    INDEX 01 02:08:60
  TRACK 101 AUDIO
    TITLE "17:cjc019_7965"
    INDEX 01 02:09:38
  TRACK 102 AUDIO
    TITLE "0:"
    INDEX 01 02:11:04
  TRACK 103 AUDIO
    TITLE "16:cjc019_7966"
    INDEX 01 02:12:62
  TRACK 104 AUDIO
    TITLE "0:"
    INDEX 01 02:14:00
  TRACK 105 AUDIO
    TITLE "18:cjc019_7967"
    INDEX 01 02:14:53
  TRACK 106 AUDIO
    TITLE "0:"
    INDEX 01 02:16:38
  TRACK 107 AUDIO
    TITLE "17:cjc019_7968"
    INDEX 01 02:17:18
  TRACK 108 AUDIO
    TITLE "0:"
    INDEX 01 02:18:35
